<?xml version="1.0" encoding="utf-8"?>
<!-- Generator: Adobe Illustrator 16.0.0, SVG Export Plug-In . SVG Version: 6.00 Build 0)  -->
<!DOCTYPE svg PUBLIC "-//W3C//DTD SVG 1.1//EN" "http://www.w3.org/Graphics/SVG/1.1/DTD/svg11.dtd">
<svg version="1.1" id="Capa_1" xmlns="http://www.w3.org/2000/svg" xmlns:xlink="http://www.w3.org/1999/xlink" x="0px" y="0px"
	 width="104px" height="104px" viewBox="48 48 104 104" enable-background="new 48 48 104 104" xml:space="preserve">
<g transform="rotate(0 50 50)">
	<path fill="#5D2325" d="M100,48L100,48c3.313,0,6,4.298,6,9.6v4.8c0,5.302-2.687,9.6-6,9.6l0,0c-3.313,0-6-4.298-6-9.6v-4.8
		C94,52.298,96.687,48,100,48z	">
<animate  fill="remove" restart="always" calcMode="linear" additive="replace" accumulate="none" repeatCount="indefinite" begin="-0.9166666666666666s" dur="1s" keyTimes="0;1" values="1;0" attributeName="opacity">
			</animate>
	</path>
</g>
<g transform="rotate(30 50 50)">
	<path fill="#5D2325" d="M118.301,16.301L118.301,16.301c3.313,0,6,4.298,6,9.599l0,4.8c0.001,5.302-2.687,9.6-6,9.6l0,0
		c-3.313-0.001-6-4.298-6-9.6l0-4.8C112.301,20.6,114.988,16.301,118.301,16.301z	">
<animate  fill="remove" restart="always" calcMode="linear" additive="replace" accumulate="none" repeatCount="indefinite" begin="-0.8333333333333334s" dur="1s" keyTimes="0;1" values="1;0" attributeName="opacity">
			</animate>
	</path>
</g>
<g transform="rotate(60 50 50)">
	<path fill="#5D2325" d="M118.301-20.301L118.301-20.301c3.313,0,6,4.298,6,9.6l0,4.799c0,5.302-2.686,9.599-6,9.601l0,0
		c-3.313,0-6-4.298-6-9.6l0-4.799C112.301-16.003,114.988-20.302,118.301-20.301z	">
<animate  fill="remove" restart="always" calcMode="linear" additive="replace" accumulate="none" repeatCount="indefinite" begin="-0.75s" dur="1s" keyTimes="0;1" values="1;0" attributeName="opacity">
			</animate>
	</path>
</g>
<g transform="rotate(90 50 50)">
	<path fill="#5D2325" d="M100-52L100-52c3.313,0,6,4.298,6,9.6v4.801c0,5.302-2.687,9.6-6,9.6l0,0c-3.313,0-6-4.298-6-9.6V-42.4
		C94-47.702,96.687-52,100-52z	">
<animate  fill="remove" restart="always" calcMode="linear" additive="replace" accumulate="none" repeatCount="indefinite" begin="-0.6666666666666666s" dur="1s" keyTimes="0;1" values="1;0" attributeName="opacity">
			</animate>
	</path>
</g>
<g transform="rotate(120 50 50)">
	<path fill="#5D2325" d="M68.301-70.301L68.301-70.301c3.313,0,6,4.299,6.001,9.6l-0.001,4.8c0.001,5.302-2.687,9.6-6,9.6l0,0
		c-3.314-0.001-6-4.299-6.001-9.6l0.001-4.8C62.301-66.003,64.988-70.301,68.301-70.301z	">
<animate  fill="remove" restart="always" calcMode="linear" additive="replace" accumulate="none" repeatCount="indefinite" begin="-0.5833333333333334s" dur="1s" keyTimes="0;1" values="1;0" attributeName="opacity">
			</animate>
	</path>
</g>
<g transform="rotate(150 50 50)">
	<path fill="#5D2325" d="M31.699-70.301L31.699-70.301c3.313-0.001,6,4.299,6,9.6l0,4.8c-0.001,5.302-2.687,9.599-6.001,9.6l0,0
		c-3.313,0-6-4.299-6-9.6l0-4.8C25.699-66.003,28.386-70.301,31.699-70.301z	">
<animate  fill="remove" restart="always" calcMode="linear" additive="replace" accumulate="none" repeatCount="indefinite" begin="-0.5s" dur="1s" keyTimes="0;1" values="1;0" attributeName="opacity">
			</animate>
	</path>
</g>
<g transform="rotate(180 50 50)">
	<path fill="#5D2325" d="M0-52L0-52c3.313,0,6,4.298,6,9.6v4.801C6-32.298,3.313-28,0-28l0,0c-3.313,0-6-4.298-6-9.6V-42.4
		C-6-47.702-3.313-52,0-52z	">
<animate  fill="remove" restart="always" calcMode="linear" additive="replace" accumulate="none" repeatCount="indefinite" begin="-0.4166666666666667s" dur="1s" keyTimes="0;1" values="1;0" attributeName="opacity">
			</animate>
	</path>
</g>
<g transform="rotate(210 50 50)">
	<path fill="#5D2325" d="M-18.301-20.301L-18.301-20.301c3.313,0,6,4.298,6,9.6l0,4.8c0,5.302-2.686,9.6-6,9.6l0,0
		c-3.314-0.001-6-4.298-6-9.601l0-4.8C-24.301-16.003-21.615-20.302-18.301-20.301z	">
<animate  fill="remove" restart="always" calcMode="linear" additive="replace" accumulate="none" repeatCount="indefinite" begin="-0.3333333333333333s" dur="1s" keyTimes="0;1" values="1;0" attributeName="opacity">
			</animate>
	</path>
</g>
<g transform="rotate(240 50 50)">
	<path fill="#5D2325" d="M-18.301,16.301L-18.301,16.301c3.313,0,6,4.298,6,9.6l0,4.8c-0.001,5.302-2.687,9.599-6,9.6l0,0
		c-3.313,0-6-4.299-6-9.6l0-4.8C-24.301,20.599-21.615,16.302-18.301,16.301z	">
<animate  fill="remove" restart="always" calcMode="linear" additive="replace" accumulate="none" repeatCount="indefinite" begin="-0.25s" dur="1s" keyTimes="0;1" values="1;0" attributeName="opacity">
			</animate>
	</path>
</g>
<g transform="rotate(270 50 50)">
	<path fill="#5D2325" d="M0,48L0,48c3.313,0,6,4.298,6,9.6v4.8C6,67.702,3.313,72,0,72l0,0c-3.313,0-6-4.298-6-9.6v-4.8
		C-6,52.298-3.314,48,0,48z	">
<animate  fill="remove" restart="always" calcMode="linear" additive="replace" accumulate="none" repeatCount="indefinite" begin="-0.16666666666666666s" dur="1s" keyTimes="0;1" values="1;0" attributeName="opacity">
			</animate>
	</path>
</g>
<g transform="rotate(300 50 50)">
	<path fill="#5D2325" d="M31.699,66.301L31.699,66.301c3.314,0,6,4.298,6,9.6v4.8c0,5.302-2.686,9.6-6,9.6l0,0
		c-3.314,0-6-4.299-6-9.6v-4.8C25.699,70.599,28.385,66.301,31.699,66.301z	">
<animate  fill="remove" restart="always" calcMode="linear" additive="replace" accumulate="none" repeatCount="indefinite" begin="-0.08333333333333333s" dur="1s" keyTimes="0;1" values="1;0" attributeName="opacity">
			</animate>
	</path>
</g>
<g transform="rotate(330 50 50)">
	<path fill="#5D2325" d="M68.301,66.302L68.301,66.302c3.314,0,6,4.298,6,9.6l0,4.8c0,5.302-2.686,9.6-6,9.6l0,0
		c-3.314,0-6-4.298-6-9.6l0-4.8C62.301,70.599,64.988,66.301,68.301,66.302z	">
<animate  fill="remove" restart="always" calcMode="linear" additive="replace" accumulate="none" repeatCount="indefinite" begin="0s" dur="1s" keyTimes="0;1" values="1;0" attributeName="opacity">
			</animate>
	</path>
</g>
</svg>
